# xmcd CD database file
#
# Track frame offsets:
#	150
#	167384
#	183600
#
# Disc length: 4392 seconds
#
# Revision: 2
# Processed by: cddbd v1.5.2PL0 Copyright (c) Steve Scherf et al.
# Submitted via: CDex 1.70beta2
#
DISCID=1c112603
DTITLE=Lawrence D. "Butch" Morris - Holy Sea (Conductions 57, 58, 59)
DYEAR=1999
DGENRE=Jazz
TTITLE0=58
TTITLE1=59E2
TTITLE2=59
EXTD=YEAR: 1999
EXTT0=
EXTT1=
EXTT2=
PLAYORDER=
